<?xml version="1.0" standalone="no"?>
<!DOCTYPE svg PUBLIC "-//W3C//DTD SVG 20010904//EN"
 "http://www.w3.org/TR/2001/REC-SVG-20010904/DTD/svg10.dtd">
<svg version="1.0" xmlns="http://www.w3.org/2000/svg"
 width="512.000000pt" height="512.000000pt" viewBox="0 0 512.000000 512.000000"
 preserveAspectRatio="xMidYMid meet">

<g transform="translate(0.000000,512.000000) scale(0.100000,-0.100000)"
fill="#000000" stroke="none">
<path d="M231 4223 c-30 -6 -206 -179 -221 -217 -25 -65 -31 -57 621 -711
l619 -620 -620 -620 c-673 -673 -653 -650 -612 -717 29 -47 174 -185 207 -198
19 -7 37 -7 59 0 21 7 271 250 774 753 l742 742 0 45 0 44 -737 739 c-636 637
-783 776 -805 766 -2 -1 -14 -4 -27 -6z"/>
<path d="M1978 1261 c-31 -28 -32 -29 -36 -142 -5 -142 7 -186 58 -212 33 -16
122 -17 1548 -15 l1514 3 29 33 c29 32 29 33 29 157 0 75 -5 134 -12 150 -26
58 65 55 -1582 55 l-1516 0 -32 -29z"/>
</g>
</svg>
